<?xml version="1.0" encoding="UTF-8"?>
<svg xmlns="http://www.w3.org/2000/svg" xmlns:xlink="http://www.w3.org/1999/xlink" viewBox="0 0 480 480" width="480px" height="480px">
<g id="surface634242">
<path style=" stroke:none;fill-rule:nonzero;fill:rgb(77.254903%,5.490196%,0.784314%);fill-opacity:1;" d="M 240 64 C 173.023438 64 86.09375 80.78125 86.09375 80.78125 L 85.875 81.03125 C 55.371094 85.910156 32 112.121094 32 144 L 32 336.03125 C 32.0625 367.480469 54.964844 394.226562 86.03125 399.125 L 86.09375 399.21875 C 86.09375 399.21875 173.023438 416.03125 240 416.03125 C 306.976562 416.03125 393.90625 399.21875 393.90625 399.21875 L 393.9375 399.1875 C 425.039062 394.300781 447.964844 367.515625 448 336.03125 L 448 144 C 447.953125 112.539062 425.046875 85.777344 393.96875 80.875 L 393.90625 80.78125 C 393.90625 80.78125 306.976562 64 240 64 Z M 192 166.375 L 320 240 L 192 313.625 Z M 192 166.375 "/>
</g>
</svg>
